                         =!Kharay Small Rips Rocker'zzz!=


       
         
     Resident Evil Apocalypse Bluray 720p AC3 6Ch (Dual Audio) - Henry[-=KSRR=-]


Alice awakes in Raccoon City, only to find it has become infested with zombies and monsters. With the help of Jill Valentine and Carlos Olivera, Alice must find a way out of the city before it is destroyed by a nuclear missile. 



General INFO:

Format                           : Matroska
File size                        : 744 MiB
Duration                         : 1h 33mn
Overall bit rate                 : 1 109 Kbps
Movie name                       : Resident Evil Apocalypse Bluray 720p AC3 6Ch (Dual Audio) - Henry[-=KSRR=-]
Encoded date                     : UTC 2011-03-14 14:15:13
Writing application              : mkvmerge v4.2.0 ('No Talking') built on Jul 28 2010 18:38:23
Writing library                  : libebml v1.0.0 + libmatroska v1.0.0

Video
ID                               : 1
Format                           : AVC
Format/Info                      : Advanced Video Codec
Format profile                   : High@L3.1
Format settings, CABAC           : Yes
Format settings, ReFrames        : 4 frames
Muxing mode                      : Container profile=Unknown@3.1
Codec ID                         : V_MPEG4/ISO/AVC
Duration                         : 1h 33mn
Bit rate                         : 597 Kbps
Width                            : 1 280 pixels
Height                           : 528 pixels
Display aspect ratio             : 2.40:1
Frame rate                       : 23.976 fps
Color space                      : YUV
Chroma subsampling               : 4:2:0
Bit depth                        : 8 bits
Scan type                        : Progressive
Bits/(Pixel*Frame)               : 0.037
Stream size                      : 386 MiB (52%)
Title                            : Ripped By Henry[-=KSRR=-]
Writing library                  : x264


Audio #1
ID                               : 2
Format                           : AC-3
Format/Info                      : Audio Coding 3
Mode extension                   : CM (complete main)
Codec ID                         : A_AC3
Duration                         : 1h 33mn
Bit rate mode                    : Constant
Bit rate                         : 256 Kbps
Channel(s)                       : 6 channels
Channel positions                : Front: L C R, Side: L R, LFE
Sampling rate                    : 48.0 KHz
Bit depth                        : 16 bits
Stream size                      : 172 MiB (23%)
Title                            : Henry[-=KSRR=-]

Audio #2
ID                               : 3
Format                           : AC-3
Format/Info                      : Audio Coding 3
Mode extension                   : CM (complete main)
Codec ID                         : A_AC3
Duration                         : 1h 33mn
Bit rate mode                    : Constant
Bit rate                         : 256 Kbps
Channel(s)                       : 6 channels
Channel positions                : Front: L C R, Side: L R, LFE
Sampling rate                    : 48.0 KHz
Bit depth                        : 16 bits
Stream size                      : 172 MiB (23%)
Title                            : Henry[-=KSRR=-]
Language                         : Hindi
 
http://www.postimg.com/31000/photo-30336.jpg 
http://www.postimg.com/31000/photo-30337.jpg 
http://www.postimg.com/31000/photo-30338.jpg 
http://www.postimg.com/31000/photo-30339.jpg 
http://www.postimg.com/31000/photo-30340.jpg 
http://www.postimg.com/31000/photo-30341.jpg 
http://www.postimg.com/31000/photo-30342.jpg 
http://www.postimg.com/31000/photo-30343.jpg 
http://www.postimg.com/31000/photo-30344.jpg

Sample Incluse In Torrent

ENJOY		